<svg id="_0232_designer_2" xmlns="http://www.w3.org/2000/svg" viewBox="0 0 500 500" data-imageid="designer-2-66" imageName="Designer 2" class="illustrations_image" style="width: 188px;"><defs><style>.cls-1_designer-2-66{opacity:.18;}.cls-1_designer-2-66,.cls-2_designer-2-66,.cls-3_designer-2-66{fill:#000001;}.cls-4_designer-2-66{fill:#f4a28c;}.cls-5_designer-2-66{fill:#a5a5a5;}.cls-2_designer-2-66{opacity:.03;}.cls-6_designer-2-66{opacity:.66;}.cls-6_designer-2-66,.cls-7_designer-2-66,.cls-8_designer-2-66{fill:#e6e6e6;}.cls-3_designer-2-66{opacity:.09;}.cls-9_designer-2-66{fill:#fff;opacity:.44;}.cls-10_designer-2-66{fill:#ce8172;opacity:.31;}.cls-11_designer-2-66{opacity:.58;}.cls-11_designer-2-66,.cls-12_designer-2-66,.cls-13_designer-2-66{fill:#68e1fd;}.cls-8_designer-2-66{opacity:.43;}.cls-14_designer-2-66{fill:#24285b;}.cls-12_designer-2-66{opacity:.73;}.cls-15_designer-2-66{fill:#ffd200;}</style></defs><ellipse id="sd_designer-2-66" class="cls-2_designer-2-66" cx="250" cy="437.56" rx="233.69" ry="26.52"/><g id="plant_designer-2-66"><path class="cls-11_designer-2-66 targetColor" d="m422.08,422.92s-15.12-4.13-18.41-18.2c0,0,23.42-4.73,24.09,19.44l-5.68-1.24Z" style="fill: rgb(104, 225, 253);"/><path class="cls-12_designer-2-66 targetColor" d="m423.94,421.43s-10.56-16.7-1.27-32.31c0,0,17.81,11.31,9.9,32.34l-8.63-.04Z" style="fill: rgb(104, 225, 253);"/><path class="cls-13_designer-2-66 targetColor" d="m426.66,421.44s5.58-17.63,22.45-20.97c0,0,3.16,11.45-10.92,21.02l-11.53-.05Z" style="fill: rgb(104, 225, 253);"/><polygon class="cls-14_designer-2-66" points="415.7 421.04 418.76 442.01 438.06 442.09 440.9 421.15 415.7 421.04"/></g><g id="panel2_designer-2-66"><rect class="cls-6_designer-2-66" x="255.45" y="42.57" width="139.1" height="97.39"/><circle class="cls-5_designer-2-66" cx="292.15" cy="71.59" r="16.22"/><rect class="cls-3_designer-2-66" x="328.26" y="57.81" width="45.71" height="63.5"/><rect class="cls-3_designer-2-66" x="278.72" y="100.03" width="31.4" height="21.28"/></g><g id="panel1_designer-2-66"><rect class="cls-8_designer-2-66" x="349.11" y="186.98" width="110.86" height="77.62"/><circle class="cls-3_designer-2-66" cx="384.34" cy="226.72" r="17.15"/><rect class="cls-5_designer-2-66" x="382.27" y="200.45" width="29.82" height="29.82"/><rect class="cls-3_designer-2-66" x="421.83" y="200.45" width="22.24" height="49.41"/></g><g id="person_designer-2-66"><path class="cls-15_designer-2-66" d="m72.57,233.55s-44.16,21.18-49.92,70c-5.76,48.83-22.08,143.09,97.91,137.72,119.99-5.38,176.59-12.05,148.29-103.75-28.3-91.7-196.29-103.97-196.29-103.97Z"/><path class="cls-3_designer-2-66" d="m68.12,258.92s-5.15,21.95,15.97,35.87c16.28,10.73,41.33,48.84,60.77,68.16,6.13,6.09,9.63,14.35,9.48,23-.06,3.46,1.41,7.33,6,11.08,13.5,11.04,70.14,16.56,101.81-17.4,31.68-33.96-10.08-50.76-10.08-50.76l-139.23-75.36-44.73,5.41Z"/><path class="cls-4_designer-2-66" d="m375.88,425.11s2.97,7.44,10.37,9.14c7.41,1.69,11.43,10.79-4.76,9.31-16.19-1.48-25.07,1.06-22.75-7.83,2.33-8.89,1.27-10.23,1.27-10.23l15.86-.39Z"/><path class="cls-4_designer-2-66" d="m267.18,418.85s-1.23,7.92,4.28,13.14c5.51,5.23,4.35,15.11-8.83,5.59-13.18-9.51-22.12-11.85-15.6-18.32,6.53-6.46,6.3-8.16,6.3-8.16l13.86,7.74Z"/><path class="cls-14_designer-2-66" d="m281.25,306.42s98.98,1,98.02,119.06l-23.36,3.96s-4.48-124.65-133.11-65.28l6.72-49.1,51.73-8.64Z"/><path class="cls-3_designer-2-66" d="m281.25,306.42s98.98,1,98.02,119.06l-23.36,3.96s-4.48-124.65-133.11-65.28l6.72-49.1,51.73-8.64Z"/><polygon class="cls-15_designer-2-66" points="289.1 197.69 297.68 199.99 291.57 193.4 289.1 197.69"/><path class="cls-4_designer-2-66" d="m154.08,256.1s17.11,43.2,58.86,35.64c41.75-7.56,57.61-95.2,57.61-95.2,0,0,16.52-10.74,8.53-22.72-7.99-11.99-20.99,13.93-20.99,13.93,0,0-17.99,73.81-56.91,49.88l-47.09,18.47Z"/><path class="cls-3_designer-2-66" d="m154.08,256.1s17.11,43.2,58.86,35.64c41.75-7.56,57.61-95.2,57.61-95.2,0,0,16.52-10.74,8.53-22.72-7.99-11.99-20.99,13.93-20.99,13.93,0,0-17.99,73.81-56.91,49.88l-47.09,18.47Z"/><path class="cls-13_designer-2-66 targetColor" d="m154.59,168.28l9.04,1.88s69.73,37.86,56.77,75.78c-12.96,37.92,15.36,73.92,15.36,73.92l-60.65,42.72s-79.22-39.35-67.36-147.59c0,0,5.51-50.45,46.84-46.7Z" style="fill: rgb(104, 225, 253);"/><rect class="cls-7_designer-2-66" x="279.34" y="181.57" width="12.68" height="108.33" transform="translate(130.36 -100.51) rotate(25.68)"/><polygon class="cls-4_designer-2-66" points="151.29 120.72 138.74 164.99 163.63 170.16 162.77 135.87 151.29 120.72"/><path class="cls-10_designer-2-66" d="m163.28,143.37s-4.54-1.5-7.58-5.84c0,0-.64,8.4,7.56,17.74l.02-11.9Z"/><path class="cls-4_designer-2-66" d="m177.07,122.02s-1.25,13.99-5.19,22.73c-1.6,3.55-5.84,5.15-9.37,3.5-4.38-2.05-9.7-6.09-9.94-13.67l-1.99-12.81s-.96-8.07,7.82-12.29c8.79-4.22,19.85,4.05,18.66,12.53Z"/><path class="cls-4_designer-2-66" d="m160.27,131.24s.84-5.34-3.23-5.64c-4.07-.3-5.34,7.41-.03,9.09l3.26-3.45Z"/><path class="cls-4_designer-2-66" d="m175.83,130.79l2.91,6.01c.72,1.48-.35,3.21-2,3.23l-5.46.06,4.56-9.29Z"/><rect class="cls-14_designer-2-66" x="244.06" y="180.67" width="49.6" height="4.95" transform="translate(127.59 -109.89) rotate(30)"/><path class="cls-1_designer-2-66" d="m189.01,339.05l-13.9,23.53s-50.44-24.38-64.89-90.59c-14.45-66.2,33.23-40.35,33.23-40.35l45.56,107.41Z"/><path class="cls-14_designer-2-66" d="m175.11,362.58s46.73-95.28,115.84-94.92c69.12.36-20.66,153.73-20.66,153.73l-22.82-9.26s33.93-65.82,25.24-86.99c-8.69-21.17-21.78,124.95-97.61,37.44Z"/><path class="cls-4_designer-2-66" d="m135.13,173.63s20.8-10.56,31.36,10.88c10.56,21.44,2.24,113.59,45.12,118.39,42.88,4.8,64.64-39.83,64.64-39.83,0,0,3.53-18.85,9.45-21.93,5.91-3.08,11.05,16.64,0,28.16,0,0-18.91,71.04-78.88,72.64-59.97,1.6-130.87-119.67-71.68-168.31Z"/><path class="cls-14_designer-2-66" d="m177.15,103.87s13.66,16.07-4.03,19.44-21.33,6.54-19.63,24.48c1.7,17.94,8.7,34.38-14.76,45.61-23.45,11.23-3.29,29.98-7.61,52.06-4.32,22.08-24.96,37.19-51.36,22.19-26.4-15-42.72-53.39-14.4-76.43,28.32-23.04,63.84-28.56,63.84-65.64s29.66-39,47.95-21.72Z"/><rect class="cls-13_designer-2-66 targetColor" x="270.19" y="264.44" width="18.74" height="10.58" transform="translate(114.42 -81.89) rotate(20.87)" style="fill: rgb(104, 225, 253);"/><rect class="cls-9_designer-2-66" x="270.19" y="264.44" width="18.74" height="10.58" transform="translate(114.42 -81.89) rotate(20.87)"/></g></svg>