<svg version="1.1" id="Layer_1" xmlns="http://www.w3.org/2000/svg" xmlns:xlink="http://www.w3.org/1999/xlink" x="0px" y="0px" viewBox="0 0 500 500" style="width: 188px;" xml:space="preserve" data-imageid="marketing-3-58" imageName="Marketing 3" class="illustrations_image">
<style type="text/css">
	.st0_marketing-3-58{fill:#FFD348;}
	.st1_marketing-3-58{fill:url(#SVGID_1_);}
	.st2_marketing-3-58{fill:url(#SVGID_00000091710317802851845910000016327435222705828504_);}
	.st3_marketing-3-58{fill:url(#SVGID_00000003798885442780181000000002618982426217590688_);}
	.st4_marketing-3-58{fill:#F24C4C;}
	.st5_marketing-3-58{fill:#FFFFFF;}
	.st6_marketing-3-58{fill:#68E1FD;}
	.st7_marketing-3-58{fill:#4F4E6E;}
	.st8_marketing-3-58{opacity:0.27;fill:#42210B;enable-background:new    ;}
	.st9_marketing-3-58{opacity:0.51;fill:#FFFFFF;enable-background:new    ;}
	.st10_marketing-3-58{opacity:0.7;fill:#42210B;enable-background:new    ;}
	.st11_marketing-3-58{fill:#F7931E;}
	.st12_marketing-3-58{fill:#42210B;}
	.st13_marketing-3-58{fill:#174399;}
	.st14_marketing-3-58{fill:#8141C4;}
	.st15_marketing-3-58{fill:#999A1C;}
</style>
<path id="Base_marketing-3-58" class="st0_marketing-3-58" d="M46.4,331.1l183.6,106c4.7,2.7,10.6,2.7,15.3,0l211.8-120.4c4.1-2.3,5.6-7.6,3.2-11.7&#10;&#9;c-0.8-1.3-1.8-2.4-3.2-3.2L268.6,192.8c-1.9-1.1-4.1-1.1-6,0l-216.2,128c-2.8,1.7-3.8,5.4-2.1,8.2C44.8,329.9,45.5,330.6,46.4,331.1&#10;&#9;z"/>
<g id="Shadow_marketing-3-58">
	
		<linearGradient id="SVGID_1_-marketing-3-58" gradientUnits="userSpaceOnUse" x1="99.56" y1="160.44" x2="135.71" y2="178.0101" gradientTransform="matrix(1 0 0 -1 0 502)">
		<stop offset="0" style="stop-color:#FFD348"/>
		<stop offset="1" style="stop-color:#F7931E"/>
	</linearGradient>
	<polygon class="st1_marketing-3-58" points="222.2,268.8 67.6,337.2 107.6,357.6 247.7,275.1 &#9;"/>
	
		<linearGradient id="SVGID_00000097475110778164444990000014907063358326387633_-marketing-3-58" gradientUnits="userSpaceOnUse" x1="364.8869" y1="150.7718" x2="394.4969" y2="201.2818" gradientTransform="matrix(1 0 0 -1 0 502)">
		<stop offset="0" style="stop-color:#FFD348"/>
		<stop offset="1" style="stop-color:#F7931E"/>
	</linearGradient>
	<polygon style="fill:url(#SVGID_00000097475110778164444990000014907063358326387633_);" points="398.2,315.6 339.8,343.9 &#10;&#9;&#9;357.4,354.1 410.8,323 &#9;"/>
	
		<linearGradient id="SVGID_00000126307587147769017980000001220218997820013238_-marketing-3-58" gradientUnits="userSpaceOnUse" x1="220.9751" y1="75.1929" x2="239.6551" y2="107.0729" gradientTransform="matrix(1 0 0 -1 0 502)">
		<stop offset="0" style="stop-color:#FFD348"/>
		<stop offset="1" style="stop-color:#F7931E"/>
	</linearGradient>
	<polygon style="fill:url(#SVGID_00000126307587147769017980000001220218997820013238_);" points="233.5,399.4 200.1,419.2 &#10;&#9;&#9;221.6,431.6 254.2,413.5 &#9;"/>
</g>
<g id="Video_Icon_marketing-3-58">
	<path class="st4_marketing-3-58" d="M135,100l34.4-19.9c2.5-1.4,5.7-0.6,7.1,1.9c0.5,0.8,0.7,1.7,0.7,2.6V107c0,1.8-1,3.5-2.6,4.5l-34.4,20.3&#10;&#9;&#9;c-2.5,1.5-5.7,0.6-7.1-1.9c-0.5-0.8-0.7-1.7-0.7-2.6v-22.8C132.4,102.6,133.4,100.9,135,100z"/>
	<path class="st5_marketing-3-58" d="M151.6,97.5c0,3.8,0,14.7,0,18.9c0,0.4,0.3,0.8,0.8,0.8c0.2,0,0.4-0.1,0.5-0.2l14-11.6&#10;&#9;&#9;c0.3-0.3,0.4-0.8,0.1-1.1c-0.1-0.1-0.2-0.2-0.3-0.2l-14-7.3c-0.4-0.2-0.9,0-1.1,0.4C151.6,97.3,151.6,97.4,151.6,97.5z"/>
</g>
<g id="Monitor_marketing-3-58">
	<path class="st6_marketing-3-58 targetColor" d="M111.5,200v140.8c0,4.8,3.9,8.6,8.6,8.6c1.5,0,3-0.4,4.4-1.2L327,228.8c1.4-0.8,2.3-2.4,2.3-4V86.8&#10;&#9;&#9;c0-4.3-3.5-7.8-7.8-7.8c-1.4,0-2.7,0.4-3.9,1L113.8,195.9C112.4,196.8,111.5,198.3,111.5,200z M309,216.5L134.5,317.1&#10;&#9;&#9;c-2.2,1.3-5.1,0.6-6.4-1.7c-0.4-0.7-0.6-1.5-0.6-2.3V206.9c0-1.7,0.9-3.2,2.3-4.1l174.5-99.8c2.2-1.3,5.1-0.5,6.4,1.7&#10;&#9;&#9;c0.4,0.7,0.6,1.5,0.6,2.3v105.4C311.3,214.2,310.5,215.7,309,216.5z" style="fill: rgb(104, 225, 253);"/>
	<path class="st7_marketing-3-58" d="M128.9,205.4c-6.7,2.6-1.5,129.5-1.5,129.5l141.2-86.5l51.9-47.4l-9.6-104.3L128.9,205.4z"/>
</g>
<g id="Announcer_marketing-3-58">
	<path class="st8_marketing-3-58" d="M203.2,236.1v-39.5c0-4.9,3.3-9.4,8.1-10.1c5.2-0.8,10,2.8,10.8,8c0.1,0.5,0.1,0.9,0.1,1.4v62.9&#10;&#9;&#9;C215.2,251.8,208.9,244.2,203.2,236.1z"/>
	<path class="st6_marketing-3-58 targetColor" d="M310.9,190.4c0,0-95.8-6.1-101.9-3.3s-8.6,13-6.3,27.1c2.3,14,48,71.1,48,71.1" style="fill: rgb(104, 225, 253);"/>
	<path class="st9_marketing-3-58" d="M245.2,220.1c-13.9-8.5-28.4-16-42.4-24.4c0.9-3.5,2.4-6.1,4.5-7.8c26.7,13.1,53,26.9,79.5,40.2l-8,12.6&#10;&#9;&#9;C267.5,234,256.5,226.9,245.2,220.1z"/>
	<path class="st9_marketing-3-58" d="M248.7,232c-15.5-9.8-31.6-18.8-46.8-29.1c0-0.6,0-1.3,0.1-1.9c13.5,8,27.4,15.2,40.7,23.4&#10;&#9;&#9;c11.2,6.8,22.2,13.9,33.4,20.6l-2,3.1C265.6,242.8,257.1,237.4,248.7,232z"/>
	<path class="st4_marketing-3-58" d="M340.5,221.1c-0.3-1-10-45.6-54.3-26.6c-40,17.1-41.2,68.1-38.5,80.6c2.2,10.1,12.6,24,32.6,29"/>
	<path class="st10_marketing-3-58" d="M340.5,221.1c-0.3-1-10-45.6-54.3-26.6c-40,17.1-41.2,68.1-38.5,80.6c2.2,10.1,12.6,24,32.6,29"/>
	
		<ellipse transform="matrix(0.3975 -0.9176 0.9176 0.3975 -49.3686 424.6367)" class="st4_marketing-3-58" cx="298.7" cy="249.9" rx="57.4" ry="40.8"/>
	<path class="st5_marketing-3-58" d="M255.7,252.5l43.3,11.3l9.5-20.1l-39.2-24.4C269.3,219.3,258.1,236.4,255.7,252.5z"/>
	
		<ellipse transform="matrix(0.4531 -0.8915 0.8915 0.4531 -60.1517 408.9198)" class="st0_marketing-3-58" cx="303.2" cy="253.5" rx="11.2" ry="9"/>
</g>
<g id="Character_marketing-3-58">
	<path class="st11_marketing-3-58" d="M420.2,200.9c-0.6,0.5-1.1,1.1-1.7,1.6c0.3-0.6,0.3-1.3,0.1-1.9c-0.2-0.6-0.8-1-1.4-0.8&#10;&#9;&#9;c-0.3,0.1-0.5,0.3-0.7,0.5c-1.3,1.9-2.5,3.8-3.8,5.7c0-0.1-0.1-0.3-0.1-0.5c-0.2-1-0.6-1.9-1.1-2.7c-1.2-1.3-2.1,0.3-2,1.8&#10;&#9;&#9;c0.2,2,1,3.8,0.3,5.8c-0.5,1-1.2,2-2.1,2.7c-0.8,0.9-1.7,1.7-2.5,2.5c-0.4,0.5-0.4,1.2,0.1,1.6c0.3,0.3,0.6,0.4,1,0.3&#10;&#9;&#9;c-0.3,0.5-0.1,1.2,0.5,1.5c0.2,0.1,0.4,0.1,0.6,0.1c0,1,1.1,1.8,1.9,0.9c1.8-2.3,3.8-4.4,6-6.3c2.4-1.5,4.7-3.1,7-4.8&#10;&#9;&#9;c1.2-0.8,0.1-2.8-1.1-2l-0.2,0.1l2-1.6c1-0.8-0.3-2.6-1.4-1.8L421,204l0,0l0,0l-0.7,0.5c0.3-0.3,0.6-0.6,0.8-0.9&#10;&#9;&#9;c0.6-0.5,1-1.2,1-1.9c0-0.6-0.6-1.1-1.2-1.1C420.7,200.6,420.4,200.7,420.2,200.9z"/>
	<path class="st12_marketing-3-58" d="M413.3,207.1c-0.2-0.2-0.6,0.1-0.4,0.4c1.1,1.1,1.4,2.7,1,4.1c-0.1,0.3,0.4,0.4,0.5,0.1&#10;&#9;&#9;C414.9,210.1,414.5,208.3,413.3,207.1z"/>
	<path class="st12_marketing-3-58" d="M418.5,202.1c-1.3,1.3-2.6,2.7-3.9,4.2c-0.2,0.2,0.1,0.6,0.4,0.4c1.2-1.4,2.5-2.8,3.9-4.2&#10;&#9;&#9;C419,202.3,418.7,201.9,418.5,202.1z"/>
	<path class="st12_marketing-3-58" d="M420.9,203.8l-4.6,3.6c-0.2,0.2,0.1,0.6,0.4,0.4l4.6-3.7C421.5,203.9,421.1,203.6,420.9,203.8z"/>
	<path class="st12_marketing-3-58" d="M421.2,206.5c-1.3,0.9-2.6,1.7-4,2.5c-0.3,0.2,0,0.6,0.3,0.4c1.3-0.8,2.7-1.7,4-2.5&#10;&#9;&#9;C421.7,206.8,421.5,206.3,421.2,206.5z"/>
	<path class="st11_marketing-3-58" d="M326.9,208.5c0.8,0.2,1.5,0.4,2.3,0.6c-0.5-0.4-0.9-1-1-1.6c-0.1-0.6,0.2-1.2,0.8-1.4c0.3-0.1,0.6,0,0.8,0.1&#10;&#9;&#9;c2,1,4.1,2,6.1,3c0-0.1-0.1-0.3-0.1-0.5c-0.3-0.9-0.4-2-0.4-2.9c0.4-1.7,2-0.8,2.6,0.6c0.9,1.8,1,3.8,2.7,5.2c1,0.6,2,1.1,3.2,1.3&#10;&#9;&#9;c1.1,0.3,2.3,0.6,3.5,0.9c0.6,0.2,0.9,0.8,0.7,1.4c-0.1,0.4-0.4,0.6-0.7,0.7c0.5,0.3,0.7,1,0.3,1.5c-0.1,0.2-0.3,0.3-0.4,0.4&#10;&#9;&#9;c0.5,0.8-0.1,2.2-1.2,1.7c-2.7-1.1-5.5-1.9-8.4-2.5c-2.8-0.2-5.6-0.4-8.4-0.7c-1.4-0.2-1.5-2.4,0-2.3h0.2l-2.5-0.4&#10;&#9;&#9;c-1.2-0.2-1-2.4,0.3-2.2l0.3,0.1h0.1l0.8,0.1l-1.2-0.4c-0.7-0.2-1.4-0.4-1.8-1.2c-0.3-0.6-0.1-1.3,0.5-1.5&#10;&#9;&#9;C326.4,208.5,326.7,208.5,326.9,208.5z"/>
	<path class="st12_marketing-3-58" d="M336,210.4c0.1-0.1,0.2-0.2,0.4-0.1c0.1,0,0.1,0.1,0.1,0.3c-0.4,1.5,0.1,3,1.2,4c0.2,0.2-0.1,0.6-0.4,0.4&#10;&#9;&#9;C336.1,213.8,335.6,212.1,336,210.4z"/>
	<path class="st12_marketing-3-58" d="M329,208.7c1.9,0.5,3.7,1,5.5,1.7c0.3,0.1,0.2,0.6-0.1,0.5c-1.8-0.6-3.6-1.2-5.5-1.7c-0.1,0-0.2-0.2-0.2-0.3&#10;&#9;&#9;C328.7,208.8,328.9,208.7,329,208.7z"/>
	<path class="st12_marketing-3-58" d="M327.8,211.3l5.8,0.9c0.3,0.1,0.2,0.5-0.1,0.5l-5.8-0.9C327.3,211.8,327.4,211.3,327.8,211.3z"/>
	<path class="st12_marketing-3-58" d="M328.8,213.9c1.6,0.1,3.1,0.2,4.7,0.2c0.1,0,0.2,0.1,0.2,0.2s-0.1,0.2-0.2,0.2c-1.6,0-3.1-0.1-4.7-0.2&#10;&#9;&#9;C328.5,214.4,328.5,213.9,328.8,213.9z"/>
	<path class="st12_marketing-3-58" d="M400.5,306.1c0,0,0.1,7.4,1,8.6s8.7,5.3,9.1,7.2s-1,4.6-4.7,3.6s-12.7-6.8-12.7-6.8v-16.1"/>
	<path class="st12_marketing-3-58" d="M370.7,314.5l-1,8.1c0,0,3.4,12.4,2,13.9s-6.3,3.1-8.2,0s0.8-14.8,0.8-14.8l0.1-8.7"/>
	<path class="st13_marketing-3-58" d="M388.6,229.2c0,0,9.7,39.2,10.1,45.3S402,313,402,313s-8.5,4.6-14.7,2.6l-5.5-40.7l-5.4-38.6&#10;&#9;&#9;C376.4,236.2,386.3,226.4,388.6,229.2z"/>
	<path class="st13_marketing-3-58" d="M370.1,238.4c-6.8,28.9-8.2,56.8-11.7,82.1c0,0,9.1,6.4,18-1.2c2.2-25.8,8.3-56.2,9.1-82.1L370.1,238.4z"/>
	<path class="st14_marketing-3-58" d="M343,207.8c6.2,2.4,13.6,4.5,18.6,3.9c6.4-0.9,12.6-2.4,18.6-4.6c0.8-0.3,9.7-3.6,12.9-0.7s2.4,12.4,2.4,12.4&#10;&#9;&#9;l11.9-10.3c4.4,1.6,6.2,6.2,6.6,10.7c-0.2,0.1-0.3,0.3-0.5,0.5c-0.9,1-1.7,2-2.6,3c-3.9,4.4-8.4,9.5-14.1,11.4&#10;&#9;&#9;c-2.3,0.7-4.7,0.5-6.9-0.4c-1.7-0.6-4.2-2.7-6.1-2c-0.5,0.2-0.9,0.5-1.4,0.5c-1.4-0.2-3.2-2.4-4.5-3c-3.6-1.9-7.8-2.1-11.7-2.3&#10;&#9;&#9;c-4.3-0.1-8.6-0.6-12.8-1.4c-1.2-0.2-14.4-3.6-14.7-3.1C341.3,216.8,341.9,213.6,343,207.8z"/>
	<path class="st11_marketing-3-58" d="M389.5,198.9c0.9,4.1,0.1,9.9-4.3,10.5c-5.7,0.9-7.1-3-6.8-7.8c0.2-3.8,2.2-9.7,7.3-8&#10;&#9;&#9;c1.3,0.5,2.3,1.4,2.9,2.6C389,197.1,389.3,198,389.5,198.9z"/>
	<path class="st12_marketing-3-58" d="M389.8,199.9c2.3-1.2,3.7-3.7,3.5-6.3c-0.2-2.5-2.7-5.8-5.6-4.6c-1.9,0.8-1.4,0.9-1.4,0.9&#10;&#9;&#9;c-0.9-1.1-2.4-1.6-3.8-1.4c-2.7,0.2-3.2,1.9-3.2,1.9s-3.1,1-3.9,3c-0.9,2.2,1.2,8.9,2.2,10.8s1.6-1.9,1.9-3.5&#10;&#9;&#9;c0.2-1.2,1.1-2.3,2.3-2.8c1.7-0.5,2.5,1,3.8,1.6C386.9,200.2,388.4,200.4,389.8,199.9z"/>
	<path class="st14_marketing-3-58" d="M379,240.1c-3.6-0.2-5.6-0.3-8.9-1.6l-0.6-18.9l22.8,10.7c0,0-0.9,4.6-1.8,8.8&#10;&#9;&#9;C386.7,240,382.9,240.4,379,240.1z"/>
	<path class="st12_marketing-3-58" d="M390.6,238.5c1.3-5.4,2.2-10.9,2.6-16.5c0-0.7,1.1-0.7,1.1,0c-0.4,5.7-1.3,11.3-2.6,16.8&#10;&#9;&#9;C391.5,239.5,390.5,239.2,390.6,238.5z"/>
	<path class="st12_marketing-3-58" d="M389.2,205.4c-1.6,0.2-3.1-0.9-3.3-2.5c-0.2-1.6,0.9-3.1,2.5-3.3c1.6-0.2,3.1,0.9,3.3,2.5c0,0.1,0,0.3,0,0.4&#10;&#9;&#9;C391.9,204,390.7,205.3,389.2,205.4z M389.2,200.1c-1.3-0.2-2.6,0.6-2.8,2c-0.2,1.3,0.6,2.6,2,2.8c1.3,0.2,2.6-0.6,2.8-2&#10;&#9;&#9;c0-0.1,0-0.3,0-0.4C391.3,201.3,390.4,200.2,389.2,200.1z"/>
	<path class="st12_marketing-3-58" d="M383.2,206c-1.6,0.2-3.1-0.9-3.3-2.5s0.9-3.1,2.5-3.3s3.1,0.9,3.3,2.5c0,0.1,0,0.3,0,0.4&#10;&#9;&#9;C385.8,204.6,384.7,205.9,383.2,206z M383.2,200.7c-1.3-0.2-2.6,0.7-2.8,2s0.7,2.6,2,2.8c1.3,0.2,2.6-0.7,2.8-2c0-0.1,0-0.2,0-0.4&#10;&#9;&#9;C385.3,201.9,384.4,200.8,383.2,200.7z"/>
	
		<rect x="385.5" y="202.8" transform="matrix(0.9924 -0.1231 0.1231 0.9924 -22.0516 49.0793)" class="st12_marketing-3-58" width="1.4" height="0.5"/>
	
		<rect x="380.3" y="199.6" transform="matrix(0.6283 -0.7779 0.7779 0.6283 -15.2775 370.877)" class="st12_marketing-3-58" width="0.5" height="3.6"/>
</g>
<g id="Plant_marketing-3-58">
	<ellipse class="st6_marketing-3-58 targetColor" cx="236.5" cy="402.5" rx="23.6" ry="16.6" style="fill: rgb(104, 225, 253);"/>
	<ellipse class="st12_marketing-3-58" cx="236.5" cy="392.7" rx="17.7" ry="7.2"/>
	<path class="st15_marketing-3-58" d="M237.7,392.9c1.4-2,2.8-4,4.2-6.3c1.9-2.9,3.6-5.9,5.2-9c1.5-2.7,2.8-5.6,3.8-8.5c1.2-3.2,2.1-6.5,2.8-9.8&#10;&#9;&#9;c0.2-0.9,0.3-1.8,0.5-2.6c0.1-0.4,0.1-0.4,0.1-0.3s0-0.3,0.1-0.8c0.1-1.8,0.3-3.6,0.3-5.4c0.1-6.2-1.1-12.3-3.5-18.1&#10;&#9;&#9;c-6.4,9.3-10.7,19.8-12.6,30.9c-0.1,0.7-0.2,1.3-0.3,2c0,0-0.2,1.2-0.3,1.7s-0.2,1.5-0.2,1.7c-0.1,0.8-0.2,1.7-0.2,2.5&#10;&#9;&#9;c-0.3,3.2-0.4,6.5-0.4,9.8C237.1,384.7,237.3,388.8,237.7,392.9z M245.2,344.1c0.4-0.5,0.9-1,1.3-1.4l0,0c-0.1,0.4-0.1,0.8-0.1,1.3&#10;&#9;&#9;C246,343.9,245.6,344,245.2,344.1L245.2,344.1z"/>
	<path class="st15_marketing-3-58" d="M238.1,393.1c0.1-2.4,0.2-4.9,0.2-7.6c0-3.5-0.2-7-0.5-10.4c-0.2-3.1-0.7-6.2-1.4-9.2c-0.8-3.3-1.8-6.6-3-9.7&#10;&#9;&#9;c-0.3-0.8-0.7-1.7-1-2.5c-0.2-0.4-0.1-0.3-0.1-0.3s-0.1-0.2-0.4-0.7c-0.8-1.6-1.7-3.2-2.6-4.7c-3.3-5.3-7.6-9.8-12.7-13.3&#10;&#9;&#9;c-0.4,11.2,1.7,22.4,6.1,32.8l0.8,1.9c0,0,0.5,1.1,0.7,1.6s0.7,1.4,0.8,1.5c0.4,0.8,0.8,1.5,1.2,2.2c1.5,2.9,3.2,5.7,5,8.4&#10;&#9;&#9;C233.3,386.6,235.6,389.9,238.1,393.1z M218.1,348.1c0.1-0.6,0.2-1.3,0.3-1.9l0,0c0.1,0.4,0.3,0.8,0.6,1.1&#10;&#9;&#9;C218.7,347.5,218.4,347.7,218.1,348.1L218.1,348.1z"/>
	<path class="st15_marketing-3-58" d="M238.2,394.4c-0.7-1.3-1.5-2.7-2.4-4.1c-1.1-1.9-2.3-3.7-3.6-5.5c-1.1-1.6-2.4-3.1-3.7-4.5&#10;&#9;&#9;c-1.5-1.6-3.1-3-4.7-4.3c-0.4-0.4-0.9-0.7-1.3-1c-0.2-0.2-0.2-0.1-0.1-0.1l-0.4-0.2c-1-0.6-1.9-1.1-2.9-1.7&#10;&#9;&#9;c-3.5-1.8-7.3-2.8-11.1-3.1c3.4,6.2,8.2,11.5,13.9,15.7c0.3,0.3,0.7,0.5,1,0.8l0.9,0.6c0.3,0.2,0.8,0.5,0.9,0.6&#10;&#9;&#9;c0.4,0.3,0.9,0.6,1.4,0.8c1.8,1.1,3.6,2,5.4,2.9C233.5,392.4,235.8,393.4,238.2,394.4z M212.9,376.5c-0.2-0.4-0.3-0.8-0.4-1.1l0,0&#10;&#9;&#9;c0.2,0.2,0.4,0.3,0.7,0.4C213,376,212.9,376.3,212.9,376.5L212.9,376.5z"/>
	<path class="st15_marketing-3-58" d="M237.7,392.9c1.4-2,2.8-4,4.2-6.3c1.9-2.9,3.6-5.9,5.2-9c1.5-2.7,2.8-5.6,3.8-8.5c1.2-3.2,2.1-6.5,2.8-9.8&#10;&#9;&#9;c0.2-0.9,0.3-1.8,0.5-2.6c0.1-0.4,0.1-0.4,0.1-0.3s0-0.3,0.1-0.8c0.1-1.8,0.3-3.6,0.3-5.4c0.1-6.2-1.1-12.3-3.5-18.1&#10;&#9;&#9;c-6.4,9.3-10.7,19.8-12.6,30.9c-0.1,0.7-0.2,1.3-0.3,2c0,0-0.2,1.2-0.3,1.7s-0.2,1.5-0.2,1.7c-0.1,0.8-0.2,1.7-0.2,2.5&#10;&#9;&#9;c-0.3,3.2-0.4,6.5-0.4,9.8C237.1,384.7,237.3,388.8,237.7,392.9z"/>
	<path class="st15_marketing-3-58" d="M238.1,393.1c0.1-2.4,0.2-4.9,0.2-7.6c0-3.5-0.2-7-0.5-10.4c-0.2-3.1-0.7-6.2-1.4-9.2c-0.8-3.3-1.8-6.6-3-9.7&#10;&#9;&#9;c-0.3-0.8-0.7-1.7-1-2.5c-0.2-0.4-0.1-0.3-0.1-0.3s-0.1-0.2-0.4-0.7c-0.8-1.6-1.7-3.2-2.6-4.7c-3.3-5.3-7.6-9.8-12.7-13.3&#10;&#9;&#9;c-0.4,11.2,1.7,22.4,6.1,32.8l0.8,1.9c0,0,0.5,1.1,0.7,1.6s0.7,1.4,0.8,1.5c0.4,0.8,0.8,1.5,1.2,2.2c1.5,2.9,3.2,5.7,5,8.4&#10;&#9;&#9;C233.3,386.6,235.6,389.9,238.1,393.1z"/>
	<path class="st15_marketing-3-58" d="M238.2,394.4c-0.7-1.3-1.5-2.7-2.4-4.1c-1.1-1.9-2.3-3.7-3.6-5.5c-1.1-1.6-2.4-3.1-3.7-4.5&#10;&#9;&#9;c-1.5-1.6-3.1-3-4.7-4.3c-0.4-0.4-0.9-0.7-1.3-1c-0.2-0.2-0.2-0.1-0.1-0.1l-0.4-0.2c-1-0.6-1.9-1.1-2.9-1.7&#10;&#9;&#9;c-3.5-1.8-7.3-2.8-11.1-3.1c3.4,6.2,8.2,11.5,13.9,15.7c0.3,0.3,0.7,0.5,1,0.8l0.9,0.6c0.3,0.2,0.8,0.5,0.9,0.6&#10;&#9;&#9;c0.4,0.3,0.9,0.6,1.4,0.8c1.8,1.1,3.6,2,5.4,2.9C233.5,392.4,235.8,393.4,238.2,394.4z"/>
</g>
<g id="Image_Icon_marketing-3-58">
	<path class="st0_marketing-3-58" d="M80,189.7v63.1c0,1.9,1.6,3.5,3.6,3.5c0.6,0,1.2-0.2,1.7-0.5l87.8-50.5c1.1-0.6,1.8-1.8,1.8-3.1v-63.9&#10;&#9;&#9;c0-1.9-1.6-3.5-3.5-3.5c-0.6,0-1.2,0.2-1.7,0.5l-87.1,50.2C80.9,186.3,80,187.9,80,189.7z"/>
	<polygon class="st5_marketing-3-58" points="92.4,188.8 92.4,244.2 165.4,202.3 165.4,146.8 &#9;"/>
	<path class="st6_marketing-3-58 targetColor" d="M92.4,244.2l17.5-38.7c1.8-4,6.5-5.8,10.4-4l8.6,3.8l16.7-28.2c1.5-2.6,4.9-3.5,7.5-1.9&#10;&#9;&#9;c0.2,0.1,0.4,0.2,0.5,0.4l11.8,8.9v17.8L92.4,244.2z" style="fill: rgb(104, 225, 253);"/>
</g>
<g id="Like_Icon_marketing-3-58">
	<path class="st4_marketing-3-58" d="M303.4,82.1l34.4-19.9c2.5-1.4,5.7-0.6,7.1,1.9c0.5,0.8,0.7,1.7,0.7,2.6v22.3c0,1.8-1,3.5-2.6,4.5l-34.4,20.3&#10;&#9;&#9;c-2.5,1.5-5.7,0.6-7.1-1.9c-0.5-0.8-0.7-1.7-0.7-2.6V86.6C300.8,84.7,301.7,83,303.4,82.1z"/>
	<polyline class="st4_marketing-3-58" points="320.5,105.6 326.8,113.1 331.9,98.8 &#9;"/>
	<path class="st5_marketing-3-58" d="M323.3,86.4c0,0-4.2-6.8-8.4-1.7c-2.4,3,2,12,8.1,12.9c5.6,0.8,13.5-18.4,5.6-18.6&#10;&#9;&#9;C323.6,78.8,323.3,86.4,323.3,86.4z"/>
</g>
</svg>